# xmcd
#
# Track frame offsets:
#	150
#	12546
#	27543
#	46858
#	64692
#	79148
#	93456
#	106889
#	121455
#	132853
#	149463
#	158894
#	175366
#	192543
#	209521
#	226189
#
# Disc length: 3223 seconds
#
# Revision: 0
# Processed by: cddbd v1.5.2PL0 Copyright (c) Steve Scherf et al.
# Submitted via: EasyCDDAExtractor 10.0.5.1
#
DISCID=e40c9510
DTITLE=Various Artist - 情．深．緣 2 - 至愛動人回憶CD2
DYEAR=2004
DGENRE=Oldies
TTITLE0=沈雁 - 踏浪
TTITLE1=沈雁 - 我踏浪而來
TTITLE2=鳳飛飛 - 掌聲響起
TTITLE3=蕭孋珠 - 一簾幽夢
TTITLE4=黃鶯鶯 - 雲河
TTITLE5=鳳飛飛 - 我是中國人
TTITLE6=張艾嘉 - 奈何
TTITLE7=江玲 - 我的小妹
TTITLE8=包正芳 - 天涼好個秋
TTITLE9=劉文正 - 閃亮的日子
TTITLE10=蕭孋珠 - 詩意
TTITLE11=鳳飛飛 - 我是一片雲
TTITLE12=黃露儀 - 我心深處
TTITLE13=江玲 - 歡喜再相聚
TTITLE14=江蕾 - 在水一方
TTITLE15=鳳飛飛 - 又見秋蓮
EXTD=
EXTT0=
EXTT1=
EXTT2=
EXTT3=
EXTT4=
EXTT5=
EXTT6=
EXTT7=
EXTT8=
EXTT9=
EXTT10=
EXTT11=
EXTT12=
EXTT13=
EXTT14=
EXTT15=
PLAYORDER=
